<svg xmlns="http://www.w3.org/2000/svg" viewBox="0 0 383.42081 249.42591"><path d="M317.64 135.452c6.643 2.538 11.27 3.47 13.81 6.078-3.713 3.867-14.317 4.677-15 6.61-.747 2.12 11.035 3.473 14.28 6.48-2.6 3.26-16.548 7.003-15.935 9.26.505 1.862 6.654 1.557 10.306 3.072-3.38 3.18-7.91 6.2-11.03 8.83-2 1.686-2.71 2.344-3.25 3.285-.66 1.15 6.91 1.775 7.55 2.265-23.07 21.468-43.61 42.196-57.8 49.257-8.27 4.11-45.87 11.47-53.47 14.6-7.6 3.13-12.33 4.29-18 4.23-7.4-.08-20.34-3.8-26.24-5.26-14.02-3.46-25.61-4.39-38.76-8.19-19.15-5.53-37.46-24.6-62.01-46.58-4.2-3.89-4.96-5.01-7.91-8.36-.12-.14 9.18-1.01 8.16-1.89-3.04-2.6-9.2-8-13.52-11.33 7.26-3.44 10.42-1.836 9.85-3.59-.443-1.37-8.54-4.45-16.024-9.36 7.573-3.32 14.51-4.26 14.166-5.69-.767-3.198-10.62-3.003-15.467-7.485 2.79-1.468 4.35-2.747 14.727-5.654 2.273-.637 7.72-2.75 10.725-4.52-4.276-31.663 54.333-92.76 120.35-94.28 66.007-1.504 111.38 50.4 117.33 88.76.96 6.186.43 5.895 13.18 9.445z" color="#000" fill="#684444" fill-rule="evenodd"/><g fill-rule="evenodd" color="#000"><path d="M220.44 58.767c15.768 15.286 25.804 20.424 34.908 29.198 17.18 16.56 24.93 24.702 40.25-6.004 4.81-9.63 7.227-22.67 8.79-31.99 2.698-16.08 3.31-19.66 3.345-49.97-19.47 1.89-32.668 5.74-47.653 12.14-12.716 5.43-25.02 15.05-43.813 42.46z" fill="#684444"/><path d="M224.34 60.477c10 16.32 15.448 22.233 29.027 29.826 19.205 10.74 20.036 18.432 34.815-1.325 8.254-11.035 13.072-33.853 14.323-45.02 2.867-25.588 1.27-16.38 2.406-40.196-15.63 2.484-19.38 2.23-40.67 9.994-14.15 5.164-19.97 11.105-32.87 26.532-12.63 15.1-10.95 13.77-7.02 20.188z" fill="#f7941d"/></g><path d="M153.04 58.792c-15.768 15.286-25.804 20.424-34.908 29.198-17.18 16.56-24.93 24.702-40.25-6.004-4.81-9.637-7.227-22.674-8.79-31.99-2.698-16.086-3.31-19.666-3.345-49.97 19.47 1.89 32.668 5.732 47.653 12.132 12.716 5.43 25.02 15.045 43.813 42.46z" color="#000" fill="#684444" fill-rule="evenodd"/><path d="M149.14 60.492c-10 16.32-15.448 22.233-29.027 29.826-19.205 10.74-20.036 18.432-34.815-1.325-8.254-11.035-13.072-33.853-14.323-45.02-2.867-25.588-1.27-16.38-2.406-40.196 15.63 2.483 19.38 2.23 40.67 9.993 14.15 5.17 19.97 11.11 32.87 26.537 12.63 15.1 10.95 13.77 7.02 20.188z" color="#000" fill="#f7941d" fill-rule="evenodd"/><path d="M106.14 124.222c-6.443-21.44-29.18-69.89-27.108-97.403 95.82 34.15 55.99 87.46 27.108 97.4zm161.2-.02c6.443-21.44 29.18-69.89 27.108-97.403-95.82 34.15-55.99 87.46-27.108 97.4z" color="#000" fill="#fff" fill-rule="evenodd"/><path d="M312.84 136.482c5.495 2.08 11.74 2.614 14.04 5.126-3.532 2.54-12.856 1.865-13.83 6.462-.765 3.622 9.898 4.444 12.833 6.52-2.523 2.592-12.337 4.887-14.673 8.924-1.793 3.1 5.762 2.87 9.067 4.33-3.146 2.15-6.22 4.695-9.038 7.23-1.81 1.625-3.52 3.247-5.07 4.76-.74.72 7.03 1.88 7.62 2.35-21.74 20.69-46.17 43.103-59.18 47.714-7.94 2.812-42.67 9.67-49.55 12.685-6.88 3.017-10.16 3.6-15.29 3.547-6.7-.07-13.18-1.6-18.52-3-12.69-3.328-32.65-7.22-44.76-9.96-17.5-3.957-45.736-28.75-67.78-50.662 5.35-1.088 7.94-1.637 7.93-2.036-.01-.177-3.03-2.976-3.96-3.822-2.755-2.507-6.128-5.12-10.036-8.322 6.57-1.945 9.24-1.1 8.857-4.008-.29-2.183-8.515-5.902-14.43-9.264 6.425-2.562 13.98-3.44 12.7-6.517-1.73-4.14-8.94-4.25-13.996-6.38 2.525-1.42 4.726-1.94 14.78-5.32 2.037-.69 6.364-2.09 9.08-3.79-3.965-34.62 56.36-93.5 117.46-93.5 61.105 0 103.3 40.87 114.4 84.79 2.2 8.693-.21 8.693 11.326 12.114z" color="#000" fill="#f7941d" fill-rule="evenodd"/><path d="M264.956 120.26c0 17.417-14.12 31.537-31.538 31.537s-31.538-14.12-31.538-31.538S216 88.72 233.418 88.72s31.538 14.122 31.538 31.54z" fill="#fff"/><path d="M177.14 592.36c0 31.56-25.584 57.143-57.143 57.143-31.56 0-57.143-25.584-57.143-57.143 0-31.56 25.584-57.143 57.143-57.143 31.56 0 57.143 25.584 57.143 57.143z" transform="translate(-1060.7315,569.17289) translate(-13.361292,34.944917) translate(-43.167247,-48.306209) matrix(3.1057,0,0,3.1057,1417.7,-513) matrix(0.11892,0,0,0.13546,-35.976,-55.558)" stroke="#000" stroke-width=".1"/><path d="M243.772 107.285c0 4.364-3.538 7.902-7.902 7.902-4.364 0-7.902-3.538-7.902-7.902 0-4.365 3.538-7.903 7.902-7.903 4.364 0 7.902 3.538 7.902 7.903z" fill="#fff" stroke="#000" stroke-width=".014"/><path d="M175.356 120.26c0 17.417-14.12 31.537-31.538 31.537s-31.538-14.12-31.538-31.538 14.12-31.54 31.538-31.54 31.538 14.12 31.538 31.54z" fill="#fff"/><path d="M177.14 592.36c0 31.56-25.584 57.143-57.143 57.143-31.56 0-57.143-25.584-57.143-57.143 0-31.56 25.584-57.143 57.143-57.143 31.56 0 57.143 25.584 57.143 57.143z" transform="translate(-1060.7315,569.17289) translate(-13.361292,34.944917) translate(-43.167247,-48.306209) matrix(3.1057,0,0,3.1057,1328.1,-513) matrix(0.11892,0,0,0.13546,-35.976,-55.558)" stroke="#000" stroke-width=".1"/><path d="M154.172 107.285c0 4.364-3.538 7.902-7.902 7.902-4.364 0-7.902-3.538-7.902-7.902 0-4.365 3.538-7.903 7.902-7.903 4.364 0 7.902 3.538 7.902 7.903z" fill="#fff" stroke="#000" stroke-width=".014"/><path d="M131.54 202.872s2.367 10.223 13.334 13.878c10.715 3.57 15.974 3.518 26.494.082 11.35-3.707 14.756-25.49 19.048-25.593 3.868-.1 8.892 21.87 18.746 25.51 10.012 3.69 15.44 2.65 26.012 0 10.572-2.66 12.205-9.06 14.86-16.6" fill="none" stroke="#684444" stroke-width="4.409"/><path d="M114.94 147.682s-41.35-23.52-68.286-22.003c-26.935 1.51-35.28 6.82-35.28 6.82m100.166 31.72s-38.395-14.37-62.71-11.43c-24.317 2.93-35.89 12.57-35.89 12.57m67.2 10.4s-32.82 1.53-42.49 4.17C12.614 186.76.474 196.62.474 196.62m120.766 2.055s-30.906 6.293-39.326 10.314c-16.938 8.08-16.636 9.57-31.616 25.39m57.342-50s-28.073 1.52-37.937 6.07c-9.863 4.56-27.693 10.25-33.383 20.49" fill="none" stroke="#684444" stroke-width="1.5"/><path d="M189.74 192.122c-2.607-.052-5.144.11-8.66-2.363-3.517-2.48-5.565-3.63-7.493-8.05-1.928-4.43-6.597-13.86-2.46-17.81 4.135-3.95 32.094-3.02 38.047 0 5.953 3.01-1.003 14.4-2.673 17.47-1.67 3.06-4.24 5.96-7.3 8.58-3.06 2.62-6.87 2.21-9.45 2.16z" fill="red"/><path d="M260.54 148.232s41.35-23.52 68.286-22.003c26.935 1.51 35.28 6.82 35.28 6.82m-79.766 27.42s38.395-14.37 62.71-11.43c24.317 2.93 35.89 12.57 35.89 12.57m-95.1 10.94s32.82 1.53 42.49 4.17c25.037 6.83 37.177 16.69 37.177 16.69M269.84 196s30.906 6.297 39.326 10.32c16.938 8.085 16.636 9.572 31.616 25.392m-78.742-49.46s28.073 1.52 37.937 6.07c9.864 4.553 27.694 10.243 33.384 20.486" fill="none" stroke="#684444" stroke-width="1.5"/></svg>