<?xml version="1.0" standalone="no"?>
<!DOCTYPE svg PUBLIC "-//W3C//DTD SVG 20010904//EN"
 "http://www.w3.org/TR/2001/REC-SVG-20010904/DTD/svg10.dtd">
<svg version="1.0" xmlns="http://www.w3.org/2000/svg"
 width="16.000000pt" height="16.000000pt" viewBox="0 0 16.000000 16.000000"
 preserveAspectRatio="xMidYMid meet">
<metadata>
Created by potrace 1.11, written by Peter Selinger 2001-2013
</metadata>
<g transform="translate(0.000000,16.000000) scale(0.006154,-0.006154)"
fill="#000000" stroke="none">
<path d="M315 2168 c-22 -5 -54 -22 -71 -39 -91 -89 -66 -285 72 -555 l65
-128 -22 -91 c-17 -68 -22 -122 -23 -225 l0 -135 -90 1 c-88 0 -210 -15 -234
-30 -15 -9 -15 -18 1 -39 10 -14 19 -15 52 -7 48 12 239 22 270 14 14 -3 26
-18 32 -39 10 -31 9 -34 -16 -43 -48 -19 -195 -52 -246 -56 -27 -2 -53 -4 -57
-5 -5 -1 -8 -12 -8 -26 0 -24 8 -28 50 -27 43 0 141 17 222 39 75 20 103 24
106 15 2 -7 11 -19 19 -28 9 -9 12 -19 7 -24 -21 -20 -167 -92 -235 -116 -41
-14 -77 -31 -81 -37 -10 -17 10 -46 30 -42 61 13 206 76 296 129 l39 23 66
-48 c146 -106 345 -180 581 -214 56 -9 261 -9 320 0 155 21 306 63 420 117 67
32 195 113 206 129 9 16 30 10 91 -24 74 -41 169 -84 228 -101 39 -12 47 -12
60 0 23 23 7 42 -48 58 -54 16 -219 94 -249 117 -16 13 -15 16 6 42 l23 28 96
-25 c53 -14 122 -29 154 -32 32 -4 65 -8 73 -9 8 -1 21 2 28 8 13 10 17 47 5
48 -54 4 -108 12 -153 21 -30 7 -57 12 -60 13 -12 2 -105 28 -108 31 -2 1 2
20 9 42 l12 40 126 -4 c69 -2 140 -7 157 -12 34 -11 64 0 64 23 0 30 -74 46
-230 51 -52 1 -97 3 -100 3 -3 1 -4 56 -3 123 1 115 -10 208 -37 298 -8 30 -7
39 14 70 60 92 150 309 163 394 28 188 -28 288 -160 287 -110 -1 -209 -40
-374 -147 -45 -29 -85 -49 -88 -45 -3 5 -43 23 -89 40 -254 91 -596 86 -820
-13 -32 -14 -63 -26 -68 -26 -6 0 -40 20 -77 44 -100 65 -156 95 -235 121 -87
29 -129 34 -181 23z m226 -168 c34 -17 83 -45 107 -62 l45 -31 -60 -56 c-69
-64 -118 -125 -158 -195 l-28 -48 -18 23 c-24 32 -105 197 -113 230 -20 91
-14 137 22 166 29 24 130 10 203 -27z m1729 22 c58 -47 25 -200 -77 -361 l-35
-54 -41 69 c-23 38 -77 106 -122 151 l-81 82 65 42 c127 83 241 111 291 71z
m-1325 -758 c42 -15 97 -68 122 -117 22 -44 25 -60 21 -122 -7 -110 -68 -188
-169 -218 -59 -18 -113 -12 -175 18 -87 43 -139 134 -131 230 6 61 12 79 49
131 61 86 175 118 283 78z m955 -33 c36 -28 77 -92 86 -133 11 -49 4 -119 -17
-163 -71 -150 -266 -185 -383 -68 -143 143 -66 381 133 412 58 9 134 -11 181
-48z m-534 -385 c43 -49 5 -116 -67 -116 -29 0 -43 6 -63 30 -22 26 -24 34
-14 60 20 59 103 74 144 26z"/>
<path d="M904 1125 c-60 -25 -79 -81 -47 -135 27 -46 81 -62 126 -39 61 31 75
100 30 148 -34 36 -68 44 -109 26z"/>
<path d="M1633 1132 c-29 -4 -73 -57 -73 -88 0 -55 47 -104 100 -104 33 0 71
23 86 51 40 78 -21 154 -113 141z"/>
</g>
</svg>
