<?xml version="1.0" standalone="no"?>
<!DOCTYPE svg PUBLIC "-//W3C//DTD SVG 20010904//EN"
 "http://www.w3.org/TR/2001/REC-SVG-20010904/DTD/svg10.dtd">
<svg version="1.0" xmlns="http://www.w3.org/2000/svg"
 width="16.000000pt" height="16.000000pt" viewBox="0 0 16.000000 16.000000"
 preserveAspectRatio="xMidYMid meet">
<metadata>
Created by potrace 1.11, written by Peter Selinger 2001-2013
</metadata>
<g transform="translate(0.000000,16.000000) scale(0.001600,-0.001600)"
fill="#000000" stroke="none">
<path d="M3500 8222 c-182 -70 -386 -260 -640 -596 -168 -224 -414 -607 -550
-861 -18 -33 -46 -84 -62 -114 -66 -119 -254 -503 -332 -679 -277 -625 -472
-1242 -512 -1618 -2 -27 -7 -62 -9 -79 -3 -16 -5 -86 -5 -155 0 -113 5 -170
26 -267 6 -31 5 -33 -22 -34 -16 0 -36 -2 -44 -3 -8 -2 -37 -6 -65 -10 -27 -3
-60 -8 -71 -10 -12 -2 -38 -7 -57 -10 -73 -12 -273 -57 -381 -87 -61 -16 -115
-31 -121 -33 -38 -10 -256 -80 -280 -91 -16 -7 -64 -25 -105 -40 -190 -70
-275 -134 -267 -198 6 -50 23 -82 53 -102 47 -30 116 -16 347 74 254 99 486
179 666 231 215 61 470 114 488 101 18 -14 155 -182 151 -186 -2 -3 -22 -7
-44 -11 -190 -29 -528 -131 -749 -226 -38 -17 -86 -37 -105 -45 -271 -116
-352 -166 -368 -227 -10 -34 0 -83 21 -103 20 -20 87 -22 142 -3 28 10 93 38
145 62 140 66 197 92 280 129 95 41 336 130 415 154 33 10 79 24 103 31 37 12
97 27 152 39 8 1 33 8 55 14 107 28 101 30 182 -56 40 -42 73 -80 73 -84 0 -6
-18 -11 -90 -25 -49 -10 -262 -81 -366 -122 -91 -37 -285 -129 -374 -179 -19
-11 -80 -44 -134 -74 -107 -59 -178 -115 -201 -160 -23 -43 -19 -86 10 -114
50 -50 100 -32 390 139 303 179 573 305 792 367 l112 32 43 -38 c24 -21 84
-76 133 -121 273 -250 583 -473 900 -650 39 -21 72 -39 75 -40 3 0 50 -22 104
-48 397 -188 778 -289 1261 -333 163 -15 695 -7 794 12 13 2 49 7 80 10 31 3
79 10 106 15 28 5 64 11 80 14 41 6 153 31 250 56 44 11 87 22 96 24 9 2 69
22 135 44 108 37 155 54 222 82 12 6 32 14 45 19 12 5 81 37 152 71 393 188
815 491 1189 853 35 34 48 33 206 -19 222 -74 460 -187 735 -350 290 -171 340
-189 390 -139 44 43 26 114 -42 176 -68 62 -391 237 -608 329 -123 53 -324
121 -427 145 -43 10 -78 21 -78 24 0 4 33 41 73 84 60 66 76 78 97 74 153 -30
444 -111 560 -157 25 -10 88 -35 140 -55 122 -48 236 -99 380 -168 160 -76
230 -95 284 -74 27 10 45 64 35 106 -15 68 -66 100 -379 239 -264 117 -613
228 -824 262 l-76 13 57 66 c32 36 68 77 80 91 13 14 23 28 23 32 0 4 10 5 22
3 12 -3 61 -11 108 -19 82 -15 215 -45 348 -81 85 -23 519 -172 667 -230 261
-102 299 -111 354 -82 29 15 61 72 61 109 0 38 -58 100 -123 131 -62 30 -177
77 -189 77 -4 0 -27 9 -51 19 -91 41 -519 166 -637 186 -19 3 -53 10 -75 15
-22 5 -69 14 -105 19 -36 6 -76 13 -90 16 -14 3 -52 8 -85 11 -33 3 -62 8 -64
9 -2 2 2 26 8 52 18 81 21 114 21 233 -1 186 -13 285 -67 535 -58 272 -217
766 -328 1020 -7 17 -29 68 -48 115 -89 217 -339 740 -427 895 -13 22 -36 65
-53 95 -99 183 -386 646 -449 725 -5 6 -47 62 -94 125 -227 303 -430 501 -592
578 -125 59 -183 54 -252 -24 -54 -62 -122 -229 -155 -378 -13 -63 -54 -288
-60 -331 -3 -27 -8 -59 -10 -70 -2 -11 -7 -47 -10 -80 -12 -119 -16 -161 -20
-190 -2 -16 -7 -64 -11 -105 -4 -41 -10 -97 -13 -125 l-6 -50 -40 1 c-45 1
-160 12 -190 18 -11 2 -58 7 -105 11 -47 4 -93 9 -102 10 -10 2 -64 7 -120 10
-57 3 -125 8 -153 10 -74 7 -506 7 -610 0 -138 -8 -276 -19 -390 -31 -85 -9
-102 -11 -175 -20 -36 -4 -83 -8 -105 -8 l-40 -1 -7 55 c-4 30 -10 84 -13 120
-11 122 -32 311 -40 370 -2 14 -7 45 -10 70 -5 40 -25 158 -40 245 -3 17 -19
80 -35 142 -49 189 -110 313 -180 365 -36 26 -106 31 -160 10z m-89 -708 c30
-15 72 -87 83 -144 3 -14 7 -34 9 -45 19 -87 29 -392 17 -535 l-5 -65 -100
-36 c-55 -20 -121 -46 -147 -57 -27 -12 -69 -32 -95 -43 -174 -78 -473 -239
-595 -321 -31 -21 -59 -38 -62 -38 -3 0 1 15 8 33 8 17 21 48 29 67 263 612
568 1089 752 1176 59 28 67 29 106 8z m3306 -20 c104 -61 262 -262 418 -534
84 -146 206 -386 250 -490 15 -36 36 -85 47 -110 11 -25 28 -63 38 -85 10 -22
17 -42 15 -43 -2 -2 -23 9 -47 26 -184 127 -619 346 -863 435 l-90 33 -6 59
c-7 76 -4 407 5 460 28 170 62 256 109 275 31 12 75 3 124 -26z m-3292 -2875
c335 -52 691 -294 914 -621 37 -56 31 -82 -22 -96 -28 -7 -48 0 -162 59 -238
123 -464 200 -665 227 -72 9 -320 9 -389 -1 -73 -10 -223 -49 -362 -93 -166
-52 -205 -58 -248 -35 -46 25 -30 101 43 201 214 293 521 417 891 359z m3449
7 c184 -23 368 -117 498 -254 66 -70 150 -189 163 -230 18 -60 -30 -104 -104
-95 -20 3 -113 29 -208 59 -237 74 -317 87 -503 88 -173 1 -226 -4 -355 -34
-167 -39 -296 -87 -480 -180 -176 -88 -184 -91 -216 -74 -15 7 -29 21 -33 29
-19 51 269 367 434 475 194 127 381 200 555 216 39 4 71 7 72 8 4 4 126 -2
177 -8z m-1709 -1431 c347 -32 415 -174 190 -400 -132 -134 -289 -237 -359
-237 -66 0 -256 130 -368 251 -103 111 -135 195 -101 261 37 72 135 111 318
126 44 4 81 7 82 8 5 4 173 -3 238 -9z"/>
</g>
</svg>
