<svg xmlns="http://www.w3.org/2000/svg" xmlns:xlink="http://www.w3.org/1999/xlink" viewBox="0 0 45.13467 29.271943"><g transform="translate(-690.01714,-284.39924)"><path d="m 949.55004,37.347643 c 7.43391,-18.60835 -27.38128,-87.18137 -42.76312,-89.66891 -7.36481,-1.19104 -8.03287,28.03358 -8.68627,28.19693 -16.38125,-2.00985 -24.31875,-2.00985 -40.7,0 -0.6534,-0.16335 -1.32146,-29.38797 -8.68627,-28.19693 -15.38184,2.48754 -50.19703,71.06056 -42.76312,89.66891 23.02841,28.53211 44.01814,41.02858 71.79939,41.02858 27.78125,0 48.77098,-12.49647 71.79939,-41.02858 z" fill="none" stroke="#000" stroke-width=".265"/><path d="M849.9694-22.165437c-5.42333 1.35812-18.17206 7.82109-23.69032 11.75444 6.44205-16.17869 15.98965-31.4187 20.61986-30.66275 4.63021.75595 3.07046 18.90831 3.07046 18.90831zM905.5319-22.165437c5.42333 1.35812 18.17206 7.82109 23.69032 11.75444-6.44205-16.17869-15.98965-31.4187-20.61986-30.66275-4.63021.75595-3.07046 18.90831-3.07046 18.90831zM863.35885 52.849283c-26.00171-19.61959-70.12812-17.37524-83.51223-10.48558-4.0909 2.10585-.18923 3.60054 1.37942 3.11274 41.40685-12.87613 68.08471-.6385 82.13281 7.37284z" fill="none" stroke="#000" stroke-width=".265"/><path d="m 856.8285,52.370633 c -20.91184,-13.33271 -54.26979,-8.98383 -64.01546,-2.95211 -2.9788,1.84362 0.0722,2.74419 1.23361,2.27991 30.65639,-12.2555 51.63888,-4.56632 62.78185,0.6722 z" fill="none" stroke="#000" stroke-width=".201"/><path d="m 852.11078,52.934583 c -16.3268,-7.74507 -41.08565,-3.70727 -47.58529,1.53643 -1.98662,1.60277 0.66498,2.38413 1.48692,1.99044 22.32238,-10.69186 37.56758,-6.30486 46.09837,-3.52687 z" fill="none" stroke="#000" stroke-width=".147"/><path d="M855.45006 36.373613c-1.60309-.53757-9.74958-9.97002-19.37129-1.70089-1.81231 1.55755-2.13527.0685-1.18118-1.6064 5.23633-9.1921 17.94077-5.26341 21.63914 2.59859.279.59308-.21026 1.0026-1.08667.7087zM876.50459 53.291703c-10.13699-9.59083-13.41522-.55301-1.29711 1.96301-2.44644 7.81575-13.26615 9.26067-20.18166.35598-.53103-.68377-1.40842-.11959-1.23332.41243 1.50391 4.56966 13.37199 12.54441 22.3112 2.61496M889.68087 52.248533c26.00171-19.61959 70.12812-17.37524 83.51223-10.48558 4.0909 2.10585.18923 3.60054-1.37942 3.11274-41.40685-12.87613-68.08471-.6385-82.13281 7.37284z" fill="none" stroke="#000" stroke-width=".265"/><path d="m 896.21122,51.769883 c 20.91184,-13.33271 54.26979,-8.98383 64.01546,-2.95211 2.9788,1.84362 -0.0722,2.74419 -1.23361,2.27991 -30.65639,-12.2555 -51.63888,-4.56632 -62.78185,0.6722 z" fill="none" stroke="#000" stroke-width=".201"/><path d="m 900.92894,52.333833 c 16.3268,-7.74507 41.08565,-3.70727 47.58529,1.53644 1.98662,1.60276 -0.66498,2.38412 -1.48692,1.99043 -22.32238,-10.69186 -37.56758,-6.30486 -46.09837,-3.52687 z" fill="none" stroke="#000" stroke-width=".147"/><path d="M897.58966 35.772863c1.60309-.53757 9.74958-9.97002 19.37129-1.70089 1.81231 1.55755 2.13527.0685 1.18118-1.6064-5.23633-9.1921-17.94077-5.26341-21.63914 2.59859-.279.59308.21026 1.0026 1.08667.7087zM876.68643 53.291703c10.13699-9.59083 13.41522-.55301 1.29711 1.96301 2.44644 7.81575 13.26615 9.26067 20.18166.35598.53103-.68377 1.40842-.11959 1.23332.41243-1.50391 4.56966-13.37199 12.54441-22.3112 2.61496" fill="none" stroke="#000" stroke-width=".265"/><path d="m 776.82184,166.36741 c 7.43391,-18.60835 -27.38128,-87.181374 -42.76312,-89.668914 -7.36481,-1.19104 -8.03287,28.033584 -8.68627,28.196934 -16.38125,-2.00985 -24.31874,-2.00985 -40.69999,0 -0.6534,-0.16335 -1.32146,-29.387974 -8.68627,-28.196934 -15.38184,2.48754 -50.19703,71.060564 -42.76312,89.668914 23.02841,28.53211 44.01814,41.02858 71.79939,41.02858 27.78124,0 48.77097,-12.49647 71.79938,-41.02858 z" fill-rule="evenodd" stroke="#000" stroke-width=".265"/><path d="M677.24121 106.85433c-5.42333 1.35812-18.17206 7.82109-23.69032 11.75444 6.44205-16.17869 15.98965-31.418704 20.61986-30.662754 4.63021.75595 3.07046 18.908314 3.07046 18.908314zM732.8037 106.85433c5.42333 1.35812 18.17206 7.82109 23.69032 11.75444-6.44205-16.17869-15.98965-31.418704-20.61986-30.662754-4.63021.75595-3.07046 18.908314-3.07046 18.908314z" fill="#fff" fill-rule="evenodd" stroke="#000" stroke-width=".265"/><path d="m 690.63066,181.86905 c -26.00171,-19.61959 -70.12812,-17.37524 -83.51223,-10.48558 -4.0909,2.10585 -0.18923,3.60054 1.37942,3.11274 41.40685,-12.87613 68.08471,-0.6385 82.13281,7.37284 z" fill-rule="evenodd" stroke="#000" stroke-width=".265"/><path d="m 684.10031,181.3904 c -20.91184,-13.33271 -54.26979,-8.98383 -64.01546,-2.95211 -2.9788,1.84362 0.0722,2.74419 1.23361,2.27991 30.65639,-12.2555 51.63888,-4.56632 62.78185,0.6722 z" fill-rule="evenodd" stroke="#000" stroke-width=".201"/><path d="m 679.38259,181.95434 c -16.3268,-7.74506 -41.08565,-3.70726 -47.58529,1.53643 -1.98662,1.60278 0.66498,2.38414 1.48692,1.99045 22.32238,-10.69186 37.56758,-6.30487 46.09837,-3.52688 z" fill-rule="evenodd" stroke="#000" stroke-width=".147"/><path d="M682.72187 165.39338c-1.60309-.53757-9.74958-9.97002-19.37129-1.70089-1.81231 1.55755-2.13527.0685-1.18118-1.6064 5.23633-9.1921 17.94077-5.26341 21.63914 2.59859.279.59308-.21026 1.0026-1.08667.7087zM703.7764 182.31147c-10.13699-9.59083-13.41522-.55301-1.29711 1.96301-2.44644 7.81575-13.26615 9.26067-20.18166.35598-.53103-.68377-1.40842-.11959-1.23332.41243 1.50391 4.56966 13.37199 12.54441 22.3112 2.61496" fill="#fff" fill-rule="evenodd" stroke="#000" stroke-width=".265"/><path d="m 716.95267,181.2683 c 26.00171,-19.61959 70.12812,-17.37524 83.51223,-10.48558 4.09091,2.10585 0.18923,3.60054 -1.37942,3.11274 -41.40685,-12.87613 -68.08471,-0.6385 -82.13281,7.37284 z" fill-rule="evenodd" stroke="#000" stroke-width=".265"/><path d="m 723.48302,180.78965 c 20.91184,-13.33271 54.26979,-8.98383 64.01547,-2.95211 2.97879,1.84362 -0.0722,2.74419 -1.23362,2.27991 -30.65639,-12.2555 -51.63888,-4.56632 -62.78185,0.6722 z" fill-rule="evenodd" stroke="#000" stroke-width=".201"/><path d="m 728.20074,181.3536 c 16.3268,-7.74507 41.08565,-3.70728 47.58529,1.53644 1.98662,1.60276 -0.66498,2.38412 -1.48692,1.99043 -22.32238,-10.69186 -37.56758,-6.30486 -46.09837,-3.52687 z" fill-rule="evenodd" stroke="#000" stroke-width=".147"/><path d="M724.86146 164.79263c1.60309-.53757 9.74958-9.97002 19.37129-1.70089 1.81231 1.55755 2.13527.0685 1.18118-1.6064-5.23633-9.1921-17.94077-5.26341-21.63914 2.59859-.279.59308.21026 1.0026 1.08667.7087zM703.95824 182.31147c10.13698-9.59083 13.41521-.55301 1.2971 1.96301 2.44644 7.81575 13.26615 9.26067 20.18166.35598.53103-.68377 1.40842-.11959 1.23332.41243-1.50391 4.56966-13.37199 12.54441-22.31119 2.61496" fill="#fff" fill-rule="evenodd" stroke="#000" stroke-width=".265"/><path d="m 810.589,224.04018 c 1.6645,-4.16645 -6.1307,-19.52007 -9.5748,-20.07703 -1.649,-0.26668 -1.7985,6.27677 -1.9448,6.31334 -3.6678,-0.45001 -5.445,-0.45001 -9.1129,0 -0.1462,-0.0365 -0.2958,-6.58002 -1.9448,-6.31334 -3.444,0.55696 -11.2392,15.91058 -9.5747,20.07703 5.1561,6.38839 9.8557,9.18637 16.076,9.18637 6.2202,0 10.9199,-2.79798 16.076,-9.18637 z" fill-rule="evenodd"/><rect width="143.524" height="126.72" x="539.314" y="206.612" ry="1.882" transform="matrix(1,0,-0.00596553,0.99998221,0,0)"/><path d="M787.8184 210.8007c-1.0412.26073-3.4885 1.50141-4.5478 2.25648 1.2367-3.10578 3.0695-6.03137 3.9583-5.88625.8889.14512.5895 3.62977.5895 3.62977zM801.2071 210.8007c1.0412.26073 3.4886 1.50141 4.5478 2.25648-1.2366-3.10578-3.0695-6.03137-3.9583-5.88625-.8888.14512-.5895 3.62977-.5895 3.62977zM790.7855 223.22079c-.5157-.17297-3.137-3.20793-6.2328-.54728-.5831.50115-.6872.0219-.3802-.51688 1.685-2.95762 5.7727-1.69353 6.9626.83613.09.19083-.068.32258-.3496.22803zM798.2403 223.22079c.5159-.17297 3.1372-3.20793 6.233-.54727.5831.50115.6871.0219.3802-.51688-1.685-2.95763-5.7727-1.69354-6.9627.83612-.089.19083.068.32259.3495.22803zM800.8509 227.7314c.049-.14794-.1951-.30469-.3427-.11464-1.9222 2.47507-4.9295 2.07346-5.6095-.0989 1.5257-1.10092 1.9359-1.60401-.3858-1.60394-2.3217.00007-1.8405.55027-.3857 1.60394-.68 2.17236-3.6873 2.57397-5.6095.0989-.1476-.19005-.3914-.0333-.3427.11464.4179 1.27012 3.7167 3.48667 6.3379.72682 2.6213 2.75985 5.9201.5433 6.338-.72682z" fill="#fff" fill-rule="evenodd"/><path d="M 109.29688 0.009765625 C 103.59693 0.54413626 103.04933 23.75868 102.51367 23.892578 C 88.65111 22.191753 81.935188 22.191753 68.072266 23.892578 C 67.536966 23.758936 66.988963 0.54611133 61.289062 0.01171875 C 61.105197 -0.0055197294 60.915467 -0.0002476388 60.720703 0.03125 C 47.70401 2.1362956 18.24218 60.166857 24.533203 75.914062 C 44.020825 100.05916 61.783173 110.63477 85.292969 110.63477 C 108.80238 110.63477 126.56511 100.05916 146.05273 75.914062 C 152.34375 60.166857 122.8823 2.1362956 109.86523 0.03125 C 109.67047 -0.0002476388 109.48072 -0.0074721344 109.29688 0.009765625 z M 57.4375 12.138672 C 57.549267 12.133472 57.656742 12.139108 57.761719 12.15625 C 61.121341 12.704735 59.990234 25.875 59.990234 25.875 C 56.05499 26.860436 46.806388 31.548536 42.802734 34.402344 C 47.330809 23.030785 53.972715 12.299688 57.4375 12.138672 z M 113.14648 12.138672 C 116.61129 12.299688 123.25354 23.030787 127.78125 34.402344 C 123.77797 31.548536 114.52897 26.860436 110.59375 25.875 C 110.59375 25.875 109.46303 12.704735 112.82227 12.15625 C 112.92725 12.13911 113.03471 12.133482 113.14648 12.138672 z M 55.828125 61.451172 C 62.584516 61.58196 69.828763 65.779404 74.414062 72.902344 C 74.827543 73.779572 73.366667 74.263675 72.810547 73.949219 C 57.312632 65.189181 49.618301 70.09801 44.175781 71.435547 C 43.221602 71.670029 41.019281 71.535759 42.429688 69.060547 C 45.614377 63.707663 50.573154 61.349447 55.828125 61.451172 z M 114.75977 61.451172 C 120.01474 61.349447 124.97351 63.707663 128.1582 69.060547 C 129.56861 71.535759 127.36629 71.670029 126.41211 71.435547 C 120.96959 70.09801 113.27526 65.189181 97.777344 73.949219 C 97.221224 74.263675 95.760348 73.779572 96.173828 72.902344 C 100.75913 65.779404 108.00337 61.58196 114.75977 61.451172 z M 85.292969 85.855469 C 102.89514 85.855469 87.391325 96.925781 85.292969 96.925781 C 83.194575 96.925781 67.690764 85.855469 85.292969 85.855469 z" transform="matrix(0.26458333,0,0,0.26458333,690.01714,284.39924)" fill="#fefdfe" fill-rule="evenodd"/><g fill="#fefdfe" fill-rule="evenodd"><path d="m 690.60558,300.13904 c -5.4104,-4.16051 -14.1782,-3.27266 -16.7651,-1.6149 -0.4091,0.26211 -0.1056,0.85084 0.311,0.6841 8.101,-3.2449 13.5611,-0.73808 16.4541,0.9308 z" transform="translate(-8.2209822,-15.591518)"/><path d="m 689.40588,300.10145 c -3.7052,-2.49318 -10.3599,-1.98454 -12.8306,-0.12052 -0.5738,0.43278 -0.048,0.90051 0.3537,0.65824 4.7231,-2.85192 10.4229,-1.5047 12.4769,-0.53738 z" transform="translate(-8.2209822,-15.591518)"/><path d="m 678.69158,300.99293 c -0.4555,0.31621 -0.02,0.90848 0.3715,0.64599 3.8374,-2.57626 6.7642,-1.89911 9.1386,-1.42134 -4.3992,-1.70316 -7.7088,-0.47506 -9.5101,0.77535 z" transform="translate(-8.2209822,-15.591518)"/></g><g fill="#fefdfe" fill-rule="evenodd"><path d="m 717.93233,307.37171 c 5.4104,-4.16051 14.1782,-3.27266 16.7651,-1.6149 0.4091,0.26211 0.1056,0.85084 -0.311,0.6841 -8.101,-3.2449 -13.5611,-0.73808 -16.4541,0.9308 z" transform="translate(30.143601,-19.371279)"/><path d="m 719.13203,307.33412 c 3.7052,-2.49318 10.3599,-1.98454 12.8306,-0.12052 0.5738,0.43278 0.048,0.90051 -0.3537,0.65824 -4.7231,-2.85192 -10.4229,-1.5047 -12.4769,-0.53738 z" transform="translate(30.143601,-19.371279)"/><path d="m 729.84633,308.2256 c 0.4555,0.31621 0.02,0.90848 -0.3715,0.64599 -3.8374,-2.57626 -6.7642,-1.89911 -9.1386,-1.42134 4.3992,-1.70316 7.7088,-0.47506 9.5101,0.77535 z" transform="translate(30.143601,-19.371279)"/></g><g fill-rule="evenodd"><path d="m 688.00154,306.81052 c -0.43435,0.36248 -0.12623,0.98232 0.36212,0.79655 2.69657,-2.17405 9.69471,-3.19389 14.23679,-0.61121 -2.85778,-3.22797 -11.74691,-2.56543 -14.59891,-0.18534 z" transform="translate(81.748298,-82.020833) translate(-0.1901613) translate(2.8348214,1.7481398)"/><path d="m 690.5845,308.54019 c -0.66811,0.50392 -0.0331,1.0833 0.41184,0.76644 5.05391,-3.59916 8.61734,-2.48737 11.46962,-1.6093 -3.91263,-2.58427 -9.00464,-1.32755 -11.88146,0.84286 z" transform="translate(81.748298,-82.020833) translate(-0.1901613) translate(2.8348214,1.7481398)"/><path d="m 693.9199,309.38348 c -0.54689,0.34317 -0.0722,1.05588 0.39719,0.77144 3.18911,-2.53319 5.40806,-2.37084 7.9625,-1.95604 -4.18114,-1.5237 -6.19699,-0.17242 -8.35969,1.1846 z" transform="translate(81.748298,-82.020833) translate(-0.1901613) translate(2.8348214,1.7481398)"/><path d="m 688.00154,306.81052 c -0.43435,0.36248 -0.12623,0.98232 0.36212,0.79655 2.69657,-2.17405 9.69471,-3.19389 14.23679,-0.61121 -2.85778,-3.22797 -11.74691,-2.56543 -14.59891,-0.18534 z" transform="translate(81.748298,-82.020833) translate(-0.1901613) matrix(-1,0,0,1,1423.0749,1.7481398)"/><path d="m 690.5845,308.54019 c -0.66811,0.50392 -0.0331,1.0833 0.41184,0.76644 5.05391,-3.59916 8.61734,-2.48737 11.46962,-1.6093 -3.91263,-2.58427 -9.00464,-1.32755 -11.88146,0.84286 z" transform="translate(81.748298,-82.020833) translate(-0.1901613) matrix(-1,0,0,1,1423.0749,1.7481398)"/><path d="m 693.9199,309.38348 c -0.54689,0.34317 -0.0722,1.05588 0.39719,0.77144 3.18911,-2.53319 5.40806,-2.37084 7.9625,-1.95604 -4.18114,-1.5237 -6.19699,-0.17242 -8.35969,1.1846 z" transform="translate(81.748298,-82.020833) translate(-0.1901613) matrix(-1,0,0,1,1423.0749,1.7481398)"/></g><path d="m 684.72254,213.23693 c -1.50811,0.14139 -1.65299,6.28357 -1.79472,6.319 -3.6678,-0.45001 -5.44472,-0.45001 -9.11262,0 -0.14163,-0.0354 -0.28662,-6.17709 -1.79472,-6.31848 -0.0487,-0.005 -0.0988,-0.003 -0.15038,0.005 -3.444,0.55696 -11.23911,15.91088 -9.57461,20.07732 5.1561,6.3884 9.85572,9.18652 16.07602,9.18652 6.2202,0 10.91992,-2.79812 16.07602,-9.18652 1.6645,-4.16644 -6.13051,-19.52036 -9.57461,-20.07732 -0.0515,-0.008 -0.10173,-0.0102 -0.15038,-0.006 z m -13.72112,3.20911 c 0.0296,-0.001 0.058,1.2e-4 0.0858,0.005 0.8889,0.14512 0.58963,3.62975 0.58963,3.62975 -1.0412,0.26073 -3.48823,1.50113 -4.54753,2.2562 1.19806,-3.00873 2.95539,-5.848 3.87212,-5.8906 z m 14.73967,0 c 0.91673,0.0426 2.67416,2.88187 3.87211,5.8906 -1.0592,-0.75507 -3.50633,-1.99547 -4.54752,-2.2562 0,0 -0.29918,-3.48463 0.58962,-3.62975 0.0278,-0.005 0.0562,-0.006 0.0858,-0.005 z m -14.82235,13.27774 c 1.64017,-0.009 3.36818,1.0467 4.07468,2.54868 0.09,0.19083 -0.0677,0.32245 -0.34933,0.2279 -0.5157,-0.17297 -3.1369,-3.20791 -6.2327,-0.54726 -0.58309,0.50115 -0.68733,0.022 -0.38033,-0.51676 0.68453,-1.20153 1.76545,-1.70632 2.88768,-1.71256 z m 14.90554,0 c 1.12224,0.006 2.20316,0.51102 2.88768,1.71256 0.3069,0.53878 0.20277,1.01791 -0.38034,0.51676 -3.09579,-2.66066 -5.71679,0.37429 -6.23269,0.54726 -0.2815,0.0946 -0.43885,-0.0371 -0.34985,-0.2279 0.70656,-1.50198 2.43502,-2.5578 4.0752,-2.54868 z m -7.45277,5.46995 c 2.3217,-7e-5 1.91121,0.50312 0.38551,1.60404 0.68,2.17236 3.68727,2.57377 5.60947,0.0987 0.1476,-0.19005 0.39214,-0.0332 0.34313,0.11472 -0.41789,1.27012 -3.71681,3.48641 -6.33811,0.72657 -2.6212,2.75984 -5.92021,0.54355 -6.33811,-0.72657 -0.0487,-0.14794 0.19501,-0.30477 0.34261,-0.11472 1.9222,2.47507 4.92948,2.07366 5.60948,-0.0987 -1.4548,-1.05367 -1.93568,-1.60397 0.38602,-1.60404 z" fill="#9c44b8" fill-rule="evenodd"/><path d="m 673.02375,236.20699 c -5.4104,-4.16051 -14.1782,-3.27266 -16.7651,-1.6149 -0.4091,0.26211 -0.1056,0.85084 0.311,0.6841 8.101,-3.2449 13.5611,-0.73808 16.4541,0.9308 z" fill="#9c44b8" fill-rule="evenodd"/><path d="m 671.82405,236.1694 c -3.7052,-2.49318 -10.3599,-1.98454 -12.8306,-0.12052 -0.5738,0.43278 -0.048,0.90051 0.3537,0.65824 4.7231,-2.85192 10.4229,-1.5047 12.4769,-0.53738 z" fill="#9c44b8" fill-rule="evenodd"/><path d="M661.10975 237.06088c-.4555.31621-.02.90848.3715.64599 3.8374-2.57626 6.7642-1.89911 9.1386-1.42134-4.3992-1.70316-7.7088-.47506-9.5101.77535zM683.71939 236.20699c5.4104-4.16051 14.1782-3.27266 16.7651-1.6149.4091.26211.1056.85084-.311.6841-8.101-3.2449-13.5611-.73808-16.4541.9308z" fill="#9c44b8" fill-rule="evenodd"/><path d="m 684.91909,236.1694 c 3.7052,-2.49318 10.3599,-1.98454 12.8306,-0.12052 0.5738,0.43278 0.048,0.90051 -0.3537,0.65824 -4.7231,-2.85192 -10.4229,-1.5047 -12.4769,-0.53738 z" fill="#9c44b8" fill-rule="evenodd"/><path d="m 695.63339,237.06088 c 0.4555,0.31621 0.02,0.90848 -0.3715,0.64599 -3.8374,-2.57626 -6.7642,-1.89911 -9.1386,-1.42134 4.3992,-1.70316 7.7088,-0.47506 9.5101,0.77535 z" fill="#9c44b8" fill-rule="evenodd"/><g transform="translate(0.25626967,-0.52916667)" fill="#fcfafd"><g id="a" stroke-linecap="round" stroke-linejoin="round"><path d="m 702.1646,304.74684 c 0.39588,0.0633 0.70906,0.13439 0.57774,0.57301 -0.0632,0.21095 -0.24265,0.19981 -0.64138,0.15825 -5.03577,-0.52486 -6.49922,-0.37763 -11.38721,1.5159 -0.37384,0.14482 -1.07662,0.52581 -1.36568,0.0414 -0.3897,-0.65308 0.51547,-0.96139 1.15111,-1.2047 3.64716,-1.39605 7.19134,-1.79884 11.66542,-1.08386 z" stroke-width=".926" transform="translate(0.50698425,0.30710566)"/><path d="m 702.02284,307.20087 c 0.36014,-0.0206 0.64916,-0.0168 0.61722,0.39389 -0.0155,0.19757 -0.1737,0.24239 -0.53392,0.26134 -3.32183,0.17469 -5.00635,0.86487 -7.89462,2.61658 -0.30845,0.18706 -0.87702,0.55211 -1.12173,0.23666 -0.28715,-0.37015 0.14737,-0.80395 0.49595,-1.00743 2.45634,-1.43378 4.37083,-2.26866 8.4371,-2.50104 z" stroke-width=".833" transform="translate(0.50698425,0.30710566)"/><path d="m 692.15934,307.80769 c 3.73067,-1.70339 5.39098,-1.88558 9.98767,-1.78185 0.38064,0.009 0.68061,0.0807 0.585,0.50493 -0.046,0.20402 -0.25044,0.19457 -0.63067,0.17536 -3.6195,-0.18287 -6.09649,0.38827 -9.25008,1.88528 -0.34395,0.16327 -1.42361,0.78501 -1.59371,0.24818 -0.18148,-0.57269 0.42163,-0.81267 0.90179,-1.0319 z" stroke-width=".879" transform="translate(0.50698425,0.30710566)"/></g><use height="100%" width="100%" transform="matrix(-1,0,0,1,1424.6564,0)" xlink:href="#a"/></g></g></svg>