<?xml version="1.0" encoding="UTF-8" standalone="no"?>
<!-- Created with Inkscape (http://www.inkscape.org/) -->

<svg
   xmlns:dc="http://purl.org/dc/elements/1.1/"
   xmlns:cc="http://creativecommons.org/ns#"
   xmlns:rdf="http://www.w3.org/1999/02/22-rdf-syntax-ns#"
   xmlns:svg="http://www.w3.org/2000/svg"
   xmlns="http://www.w3.org/2000/svg"
   xmlns:sodipodi="http://sodipodi.sourceforge.net/DTD/sodipodi-0.dtd"
   xmlns:inkscape="http://www.inkscape.org/namespaces/inkscape"
   width="43.300877mm"
   height="29.113012mm"
   viewBox="0 0 43.300877 29.113012"
   version="1.1"
   id="svg8"
   inkscape:version="0.92.0 unknown"
   sodipodi:docname="logo.svg">
  <defs
     id="defs2" />
  <sodipodi:namedview
     id="base"
     pagecolor="#ffffff"
     bordercolor="#666666"
     borderopacity="1.0"
     inkscape:pageopacity="0.0"
     inkscape:pageshadow="2"
     inkscape:zoom="2.8"
     inkscape:cx="57.560335"
     inkscape:cy="65.552448"
     inkscape:document-units="mm"
     inkscape:current-layer="layer1"
     showgrid="false"
     showguides="true"
     inkscape:guide-bbox="true"
     inkscape:window-width="1916"
     inkscape:window-height="1125"
     inkscape:window-x="1680"
     inkscape:window-y="54"
     inkscape:window-maximized="0"
     fit-margin-top="0"
     fit-margin-left="0"
     fit-margin-right="0"
     fit-margin-bottom="0" />
  <metadata
     id="metadata5">
    <rdf:RDF>
      <cc:Work
         rdf:about="">
        <dc:format>image/svg+xml</dc:format>
        <dc:type
           rdf:resource="http://purl.org/dc/dcmitype/StillImage" />
        <dc:title></dc:title>
      </cc:Work>
    </rdf:RDF>
  </metadata>
  <g
     inkscape:label="Layer 1"
     inkscape:groupmode="layer"
     id="layer1"
     transform="translate(-96.233226,-115.80455)">
    <path
       style="fill:#c08cd0;fill-opacity:1;fill-rule:evenodd;stroke:none;stroke-width:0.99671447px;stroke-linecap:butt;stroke-linejoin:miter;stroke-opacity:1"
       d="m 445.68164,443.23438 c -58.73197,0.17837 -65.93866,56.29721 -58.73242,75.71484 7.20623,19.41762 38.49623,29.28571 58.73242,28.75 20.23623,0.53571 51.52619,-9.33238 58.73242,-28.75 7.20624,-19.41763 -4.5e-4,-75.53636 -58.73242,-75.71484 z m -28.33984,50.53515 a 15.178571,15.357142 0 0 1 15.17773,15.35742 15.178571,15.357142 0 0 1 -15.17773,15.35743 15.178571,15.357142 0 0 1 -15.17774,-15.35743 15.178571,15.357142 0 0 1 15.17774,-15.35742 z m 56.67773,0 a 15.178571,15.357142 0 0 1 15.17969,15.35742 15.178571,15.357142 0 0 1 -15.17969,15.35743 15.178571,15.357142 0 0 1 -15.17773,-15.35743 15.178571,15.357142 0 0 1 15.17773,-15.35742 z m -28.33789,25.53516 a 5.3571427,4.7321426 0 0 1 5.35742,4.73242 5.3571427,4.7321426 0 0 1 -5.35742,4.73242 5.3571427,4.7321426 0 0 1 -5.35742,-4.73242 5.3571427,4.7321426 0 0 1 5.35742,-4.73242 z"
       transform="scale(0.26458333)"
       id="path4498"
       inkscape:connector-curvature="0" />
    <path
       style="fill:#c08cd0;fill-opacity:1;fill-rule:evenodd;stroke:none;stroke-width:0.99999994px;stroke-linecap:butt;stroke-linejoin:miter;stroke-opacity:1"
       d="m 386.68359,437.6875 c -14.91346,-0.16332 -15.16518,19.44142 1.53125,46.08203 l 27.67774,-32.41015 c -12.62233,-9.43874 -22.43014,-13.59764 -29.20899,-13.67188 z m 1.71289,8.27148 c 4.6857,-0.18032 11.91219,3.02548 20.31055,9.73438 l -16.22461,18.83203 C 379.83595,455.96345 380.587,446.25953 388.39648,445.95898 Z"
       transform="scale(0.26458333)"
       id="path4543"
       inkscape:connector-curvature="0" />
    <path
       style="opacity:1;fill:#c08cd0;fill-opacity:1;fill-rule:nonzero;stroke:none;stroke-width:1.07575762;stroke-linecap:round;stroke-linejoin:round;stroke-miterlimit:4;stroke-dasharray:none;stroke-dashoffset:0;stroke-opacity:1"
       d="m 113.58184,134.7265 a 1.6772693,1.626443 0 0 1 -1.67727,1.62644 1.6772693,1.626443 0 0 1 -1.67727,-1.62644 1.6772693,1.626443 0 0 1 1.67727,-1.62644 1.6772693,1.626443 0 0 1 1.67727,1.62644 z"
       id="path4561" />
    <path
       transform="scale(-1,1)"
       style="opacity:1;fill:#c08cd0;fill-opacity:1;fill-rule:nonzero;stroke:none;stroke-width:1.07575762;stroke-linecap:round;stroke-linejoin:round;stroke-miterlimit:4;stroke-dasharray:none;stroke-dashoffset:0;stroke-opacity:1"
       d="m -122.20443,134.7265 a 1.6772693,1.626443 0 0 1 -1.67727,1.62644 1.6772693,1.626443 0 0 1 -1.67727,-1.62644 1.6772693,1.626443 0 0 1 1.67727,-1.62644 1.6772693,1.626443 0 0 1 1.67727,1.62644 z"
       id="path4561-5" />
    <path
       style="fill:#c08cd0;fill-opacity:1;fill-rule:evenodd;stroke:none;stroke-width:0.99999994px;stroke-linecap:butt;stroke-linejoin:miter;stroke-opacity:1"
       d="m 504.69727,437.6875 c -6.77885,0.0742 -16.58861,4.23314 -29.21094,13.67188 l 27.67969,32.41015 c 16.69644,-26.64061 16.44471,-46.24535 1.53125,-46.08203 z m -1.71485,8.27148 c 7.80949,0.30055 8.56053,10.00447 -4.08594,28.56641 l -16.2246,-18.83203 c 8.39836,-6.7089 15.62485,-9.9147 20.31054,-9.73438 z"
       transform="scale(0.26458333)"
       id="path4543-9"
       inkscape:connector-curvature="0" />
    <g
       id="g4729"
       style="fill:#c08cd0">
      <path
         inkscape:connector-curvature="0"
         id="path4624-0"
         d="m 132.93147,135.45545 c 2.72225,-0.1229 4.42038,-0.0684 6.21485,0.34571 a 0.50007857,0.50007857 0 1 1 -0.22461,0.97461 c -1.68004,-0.38769 -3.25481,-0.44374 -5.94532,-0.32227 a 0.50005,0.50005 0 1 1 -0.0449,-0.99805 z"
         style="color:#000000;font-style:normal;font-variant:normal;font-weight:normal;font-stretch:normal;font-size:medium;line-height:normal;font-family:sans-serif;font-variant-ligatures:normal;font-variant-position:normal;font-variant-caps:normal;font-variant-numeric:normal;font-variant-alternates:normal;font-feature-settings:normal;text-indent:0;text-align:start;text-decoration:none;text-decoration-line:none;text-decoration-style:solid;text-decoration-color:#000000;letter-spacing:normal;word-spacing:normal;text-transform:none;writing-mode:lr-tb;direction:ltr;text-orientation:mixed;dominant-baseline:auto;baseline-shift:baseline;text-anchor:start;white-space:normal;shape-padding:0;clip-rule:nonzero;display:inline;overflow:visible;visibility:visible;opacity:1;isolation:auto;mix-blend-mode:normal;color-interpolation:sRGB;color-interpolation-filters:linearRGB;solid-color:#000000;solid-opacity:1;vector-effect:none;fill:#c08cd0;fill-opacity:1;fill-rule:evenodd;stroke:none;stroke-width:1;stroke-linecap:round;stroke-linejoin:miter;stroke-miterlimit:4;stroke-dasharray:none;stroke-dashoffset:0;stroke-opacity:1;color-rendering:auto;image-rendering:auto;shape-rendering:auto;text-rendering:auto;enable-background:accumulate" />
      <path
         inkscape:connector-curvature="0"
         id="path4624-2-9"
         d="m 131.18482,140.34624 c 2.35179,1.37655 3.87991,2.11917 5.66075,2.58841 a 0.50007859,0.50007859 0 1 0 0.25512,-0.96707 c -1.66728,-0.43934 -3.08695,-1.12313 -5.41131,-2.48363 a 0.50005001,0.50005001 0 1 0 -0.50454,0.8623 z"
         style="color:#000000;font-style:normal;font-variant:normal;font-weight:normal;font-stretch:normal;font-size:medium;line-height:normal;font-family:sans-serif;font-variant-ligatures:normal;font-variant-position:normal;font-variant-caps:normal;font-variant-numeric:normal;font-variant-alternates:normal;font-feature-settings:normal;text-indent:0;text-align:start;text-decoration:none;text-decoration-line:none;text-decoration-style:solid;text-decoration-color:#000000;letter-spacing:normal;word-spacing:normal;text-transform:none;writing-mode:lr-tb;direction:ltr;text-orientation:mixed;dominant-baseline:auto;baseline-shift:baseline;text-anchor:start;white-space:normal;shape-padding:0;clip-rule:nonzero;display:inline;overflow:visible;visibility:visible;opacity:1;isolation:auto;mix-blend-mode:normal;color-interpolation:sRGB;color-interpolation-filters:linearRGB;solid-color:#000000;solid-opacity:1;vector-effect:none;fill:#c08cd0;fill-opacity:1;fill-rule:evenodd;stroke:none;stroke-width:1;stroke-linecap:round;stroke-linejoin:miter;stroke-miterlimit:4;stroke-dasharray:none;stroke-dashoffset:0;stroke-opacity:1;color-rendering:auto;image-rendering:auto;shape-rendering:auto;text-rendering:auto;enable-background:accumulate" />
      <path
         sodipodi:nodetypes="cccccc"
         inkscape:connector-curvature="0"
         id="path4624-2-9-6"
         d="m 132.28326,138.49117 c 2.62359,0.73664 4.2969,1.2679 6.13853,1.27123 0.66788,0.002 0.67,-0.99986 0.002,-1.00015 -1.72419,-0.003 -3.2777,-0.50494 -5.87069,-1.23299 -0.66263,-0.21904 -0.94977,0.80422 -0.26992,0.9619 z"
         style="color:#000000;font-style:normal;font-variant:normal;font-weight:normal;font-stretch:normal;font-size:medium;line-height:normal;font-family:sans-serif;font-variant-ligatures:normal;font-variant-position:normal;font-variant-caps:normal;font-variant-numeric:normal;font-variant-alternates:normal;font-feature-settings:normal;text-indent:0;text-align:start;text-decoration:none;text-decoration-line:none;text-decoration-style:solid;text-decoration-color:#000000;letter-spacing:normal;word-spacing:normal;text-transform:none;writing-mode:lr-tb;direction:ltr;text-orientation:mixed;dominant-baseline:auto;baseline-shift:baseline;text-anchor:start;white-space:normal;shape-padding:0;clip-rule:nonzero;display:inline;overflow:visible;visibility:visible;opacity:1;isolation:auto;mix-blend-mode:normal;color-interpolation:sRGB;color-interpolation-filters:linearRGB;solid-color:#000000;solid-opacity:1;vector-effect:none;fill:#c08cd0;fill-opacity:1;fill-rule:evenodd;stroke:none;stroke-width:1;stroke-linecap:round;stroke-linejoin:miter;stroke-miterlimit:4;stroke-dasharray:none;stroke-dashoffset:0;stroke-opacity:1;color-rendering:auto;image-rendering:auto;shape-rendering:auto;text-rendering:auto;enable-background:accumulate" />
    </g>
    <g
       id="g4744"
       transform="translate(21.166674,-4.74509)"
       style="fill:#c08cd0">
      <path
         inkscape:connector-curvature="0"
         id="path4624-0-0"
         d="m 81.669314,140.20054 c -2.72225,-0.1229 -4.42038,-0.0684 -6.21485,0.34571 a 0.50007859,0.50007859 0 1 0 0.22461,0.97461 c 1.68004,-0.38769 3.25481,-0.44374 5.94532,-0.32227 a 0.50005001,0.50005001 0 1 0 0.0449,-0.99805 z"
         style="color:#000000;font-style:normal;font-variant:normal;font-weight:normal;font-stretch:normal;font-size:medium;line-height:normal;font-family:sans-serif;font-variant-ligatures:normal;font-variant-position:normal;font-variant-caps:normal;font-variant-numeric:normal;font-variant-alternates:normal;font-feature-settings:normal;text-indent:0;text-align:start;text-decoration:none;text-decoration-line:none;text-decoration-style:solid;text-decoration-color:#000000;letter-spacing:normal;word-spacing:normal;text-transform:none;writing-mode:lr-tb;direction:ltr;text-orientation:mixed;dominant-baseline:auto;baseline-shift:baseline;text-anchor:start;white-space:normal;shape-padding:0;clip-rule:nonzero;display:inline;overflow:visible;visibility:visible;opacity:1;isolation:auto;mix-blend-mode:normal;color-interpolation:sRGB;color-interpolation-filters:linearRGB;solid-color:#000000;solid-opacity:1;vector-effect:none;fill:#c08cd0;fill-opacity:1;fill-rule:evenodd;stroke:none;stroke-width:1;stroke-linecap:round;stroke-linejoin:miter;stroke-miterlimit:4;stroke-dasharray:none;stroke-dashoffset:0;stroke-opacity:1;color-rendering:auto;image-rendering:auto;shape-rendering:auto;text-rendering:auto;enable-background:accumulate" />
      <path
         inkscape:connector-curvature="0"
         id="path4624-2-9-62"
         d="m 83.415964,145.09133 c -2.35179,1.37655 -3.87991,2.11917 -5.66075,2.58841 a 0.50007859,0.50007859 0 1 1 -0.25512,-0.96707 c 1.66728,-0.43934 3.08695,-1.12313 5.41131,-2.48363 a 0.50005001,0.50005001 0 1 1 0.50454,0.8623 z"
         style="color:#000000;font-style:normal;font-variant:normal;font-weight:normal;font-stretch:normal;font-size:medium;line-height:normal;font-family:sans-serif;font-variant-ligatures:normal;font-variant-position:normal;font-variant-caps:normal;font-variant-numeric:normal;font-variant-alternates:normal;font-feature-settings:normal;text-indent:0;text-align:start;text-decoration:none;text-decoration-line:none;text-decoration-style:solid;text-decoration-color:#000000;letter-spacing:normal;word-spacing:normal;text-transform:none;writing-mode:lr-tb;direction:ltr;text-orientation:mixed;dominant-baseline:auto;baseline-shift:baseline;text-anchor:start;white-space:normal;shape-padding:0;clip-rule:nonzero;display:inline;overflow:visible;visibility:visible;opacity:1;isolation:auto;mix-blend-mode:normal;color-interpolation:sRGB;color-interpolation-filters:linearRGB;solid-color:#000000;solid-opacity:1;vector-effect:none;fill:#c08cd0;fill-opacity:1;fill-rule:evenodd;stroke:none;stroke-width:1;stroke-linecap:round;stroke-linejoin:miter;stroke-miterlimit:4;stroke-dasharray:none;stroke-dashoffset:0;stroke-opacity:1;color-rendering:auto;image-rendering:auto;shape-rendering:auto;text-rendering:auto;enable-background:accumulate" />
      <path
         sodipodi:nodetypes="cccccc"
         inkscape:connector-curvature="0"
         id="path4624-2-9-6-6"
         d="m 82.317524,143.23626 c -2.62359,0.73664 -4.2969,1.2679 -6.13853,1.27123 -0.66788,0.002 -0.67,-0.99986 -0.002,-1.00015 1.7242,-0.003 3.27771,-0.50494 5.8707,-1.23299 0.66263,-0.21904 0.94977,0.80422 0.26992,0.9619 z"
         style="color:#000000;font-style:normal;font-variant:normal;font-weight:normal;font-stretch:normal;font-size:medium;line-height:normal;font-family:sans-serif;font-variant-ligatures:normal;font-variant-position:normal;font-variant-caps:normal;font-variant-numeric:normal;font-variant-alternates:normal;font-feature-settings:normal;text-indent:0;text-align:start;text-decoration:none;text-decoration-line:none;text-decoration-style:solid;text-decoration-color:#000000;letter-spacing:normal;word-spacing:normal;text-transform:none;writing-mode:lr-tb;direction:ltr;text-orientation:mixed;dominant-baseline:auto;baseline-shift:baseline;text-anchor:start;white-space:normal;shape-padding:0;clip-rule:nonzero;display:inline;overflow:visible;visibility:visible;opacity:1;isolation:auto;mix-blend-mode:normal;color-interpolation:sRGB;color-interpolation-filters:linearRGB;solid-color:#000000;solid-opacity:1;vector-effect:none;fill:#c08cd0;fill-opacity:1;fill-rule:evenodd;stroke:none;stroke-width:1;stroke-linecap:round;stroke-linejoin:miter;stroke-miterlimit:4;stroke-dasharray:none;stroke-dashoffset:0;stroke-opacity:1;color-rendering:auto;image-rendering:auto;shape-rendering:auto;text-rendering:auto;enable-background:accumulate" />
    </g>
  </g>
</svg>
