<svg class="logo" xmlns="http://www.w3.org/2000/svg" xmlns:xlink="http://www.w3.org/1999/xlink" viewBox="0 0 45.13467 29.271945"><g fill="#b26400"><path d="m 109.29688,0.00976563 c -5.69995,0.53437063 -6.24755,23.74891437 -6.78321,23.88281237 -13.86256,-1.700825 -20.578482,-1.700825 -34.441404,0 C 67.536966,23.758936 66.988963,0.54611133 61.289062,0.01171875 61.105197,-0.00551973 60.915467,-2.476388e-4 60.720703,0.03125 47.70401,2.1362956 18.24218,60.166857 24.533203,75.914062 c 19.487622,24.145098 37.24997,34.720708 60.759766,34.720708 23.509411,0 41.272141,-10.57561 60.759761,-34.720708 C 152.34375,60.166857 122.8823,2.1362956 109.86523,0.03125 109.67047,-2.476388e-4 109.48072,-0.00747213 109.29688,0.00976563 Z M 57.4375,12.138672 c 0.111767,-0.0052 0.219242,4.36e-4 0.324219,0.01758 3.359622,0.548485 2.228515,13.71875 2.228515,13.71875 -3.935244,0.985436 -13.183846,5.673536 -17.1875,8.527344 C 47.330809,23.030785 53.972715,12.299688 57.4375,12.138672 Z m 55.70898,0 c 3.46481,0.161016 10.10706,10.892115 14.63477,22.263672 -4.00328,-2.853808 -13.25228,-7.541908 -17.1875,-8.527344 0,0 -1.13072,-13.170265 2.22852,-13.71875 0.10498,-0.01714 0.21244,-0.02277 0.32421,-0.01758 z m -57.318355,49.3125 c 6.756391,0.130788 14.000638,4.328232 18.585937,11.451172 0.413481,0.877228 -1.047395,1.361331 -1.603515,1.046875 -15.497915,-8.760038 -23.192246,-3.851209 -28.634766,-2.513672 -0.954179,0.234482 -3.1565,0.100212 -1.746093,-2.375 3.184689,-5.352884 8.143466,-7.7111 13.398437,-7.609375 z m 58.931645,0 c 5.25497,-0.101725 10.21374,2.256491 13.39843,7.609375 1.41041,2.475212 -0.79191,2.609482 -1.74609,2.375 -5.44252,-1.337537 -13.13685,-6.246366 -28.634766,2.513672 -0.55612,0.314456 -2.016996,-0.169647 -1.603516,-1.046875 4.585302,-7.12294 11.829542,-11.320384 18.585942,-11.451172 z M 85.292969,85.855469 c 17.602171,0 2.098356,11.070312 0,11.070312 -2.098394,0 -17.602205,-11.070312 0,-11.070312 z" transform="translate(-690.01714,-284.39941) matrix(0.26458333,0,0,0.26458333,690.01714,284.39924)" fill-rule="evenodd"/><g transform="translate(-690.01714,-284.39941) translate(0.25626967,-0.52916667)"><g id="a" stroke-linecap="round" stroke-linejoin="round"><path d="m 702.1646,304.74684 c 0.39588,0.0633 0.70906,0.13439 0.57774,0.57301 -0.0632,0.21095 -0.24265,0.19981 -0.64138,0.15825 -5.03577,-0.52486 -6.49922,-0.37763 -11.38721,1.5159 -0.37384,0.14482 -1.07662,0.52581 -1.36568,0.0414 -0.3897,-0.65308 0.51547,-0.96139 1.15111,-1.2047 3.64716,-1.39605 7.19134,-1.79884 11.66542,-1.08386 z" transform="translate(0.50698425,0.30710566)" stroke-width=".926"/><path d="m 702.02284,307.20087 c 0.36014,-0.0206 0.64916,-0.0168 0.61722,0.39389 -0.0155,0.19757 -0.1737,0.24239 -0.53392,0.26134 -3.32183,0.17469 -5.00635,0.86487 -7.89462,2.61658 -0.30845,0.18706 -0.87702,0.55211 -1.12173,0.23666 -0.28715,-0.37015 0.14737,-0.80395 0.49595,-1.00743 2.45634,-1.43378 4.37083,-2.26866 8.4371,-2.50104 z" transform="translate(0.50698425,0.30710566)" stroke-width=".833"/><path d="m 692.15934,307.80769 c 3.73067,-1.70339 5.39098,-1.88558 9.98767,-1.78185 0.38064,0.009 0.68061,0.0807 0.585,0.50493 -0.046,0.20402 -0.25044,0.19457 -0.63067,0.17536 -3.6195,-0.18287 -6.09649,0.38827 -9.25008,1.88528 -0.34395,0.16327 -1.42361,0.78501 -1.59371,0.24818 -0.18148,-0.57269 0.42163,-0.81267 0.90179,-1.0319 z" transform="translate(0.50698425,0.30710566)" stroke-width=".879"/></g><use height="100%" width="100%" transform="matrix(-1,0,0,1,1424.6564,0)" xlink:href="#a"/></g></g></svg>