<svg class="logo" xmlns="http://www.w3.org/2000/svg" viewBox="0 0 43.300877 29.113012"><g fill="#b26400"><path d="m 445.68164,443.23438 c -58.73197,0.17837 -65.93866,56.29721 -58.73242,75.71484 7.20623,19.41762 38.49623,29.28571 58.73242,28.75 20.23623,0.53571 51.52619,-9.33238 58.73242,-28.75 7.20624,-19.41763 -4.5e-4,-75.53636 -58.73242,-75.71484 z m -28.33984,50.53515 a 15.178571,15.357142 0 0 1 15.17773,15.35742 15.178571,15.357142 0 0 1 -15.17773,15.35743 15.178571,15.357142 0 0 1 -15.17774,-15.35743 15.178571,15.357142 0 0 1 15.17774,-15.35742 z m 56.67773,0 a 15.178571,15.357142 0 0 1 15.17969,15.35742 15.178571,15.357142 0 0 1 -15.17969,15.35743 15.178571,15.357142 0 0 1 -15.17773,-15.35743 15.178571,15.357142 0 0 1 15.17773,-15.35742 z m -28.33789,25.53516 a 5.3571427,4.7321426 0 0 1 5.35742,4.73242 5.3571427,4.7321426 0 0 1 -5.35742,4.73242 5.3571427,4.7321426 0 0 1 -5.35742,-4.73242 5.3571427,4.7321426 0 0 1 5.35742,-4.73242 z" transform="translate(-96.233226,-115.80455) scale(0.26458333)" fill-rule="evenodd"/><path d="m 386.68359,437.6875 c -14.91346,-0.16332 -15.16518,19.44142 1.53125,46.08203 l 27.67774,-32.41015 c -12.62233,-9.43874 -22.43014,-13.59764 -29.20899,-13.67188 z m 1.71289,8.27148 c 4.6857,-0.18032 11.91219,3.02548 20.31055,9.73438 l -16.22461,18.83203 C 379.83595,455.96345 380.587,446.25953 388.39648,445.95898 Z" transform="translate(-96.233226,-115.80455) scale(0.26458333)" fill-rule="evenodd"/><path d="m 113.58184,134.7265 a 1.6772693,1.626443 0 0 1 -1.67727,1.62644 1.6772693,1.626443 0 0 1 -1.67727,-1.62644 1.6772693,1.626443 0 0 1 1.67727,-1.62644 1.6772693,1.626443 0 0 1 1.67727,1.62644 z" transform="translate(-96.233226,-115.80455)"/><path transform="translate(-96.233226,-115.80455) scale(-1,1)" d="m -122.20443,134.7265 a 1.6772693,1.626443 0 0 1 -1.67727,1.62644 1.6772693,1.626443 0 0 1 -1.67727,-1.62644 1.6772693,1.626443 0 0 1 1.67727,-1.62644 1.6772693,1.626443 0 0 1 1.67727,1.62644 z"/><path d="m 504.69727,437.6875 c -6.77885,0.0742 -16.58861,4.23314 -29.21094,13.67188 l 27.67969,32.41015 c 16.69644,-26.64061 16.44471,-46.24535 1.53125,-46.08203 z m -1.71485,8.27148 c 7.80949,0.30055 8.56053,10.00447 -4.08594,28.56641 l -16.2246,-18.83203 c 8.39836,-6.7089 15.62485,-9.9147 20.31054,-9.73438 z" transform="translate(-96.233226,-115.80455) scale(0.26458333)" fill-rule="evenodd"/><path d="M132.93147 135.45545c2.72225-.1229 4.42038-.0684 6.21485.34571a.50007857.50007857 0 1 1-.22461.97461c-1.68004-.38769-3.25481-.44374-5.94532-.32227a.50005.50005 0 1 1-.0449-.99805zM131.18482 140.34624c2.35179 1.37655 3.87991 2.11917 5.66075 2.58841a.50007859.50007859 0 1 0 .25512-.96707c-1.66728-.43934-3.08695-1.12313-5.41131-2.48363a.50005001.50005001 0 1 0-.50454.8623zM132.28326 138.49117c2.62359.73664 4.2969 1.2679 6.13853 1.27123.66788.002.67-.99986.002-1.00015-1.72419-.003-3.2777-.50494-5.87069-1.23299-.66263-.21904-.94977.80422-.26992.9619z" style="line-height:normal;font-variant-ligatures:normal;font-variant-position:normal;font-variant-caps:normal;font-variant-numeric:normal;font-variant-alternates:normal;font-feature-settings:normal;text-indent:0;text-align:start;text-decoration-line:none;text-decoration-style:solid;text-decoration-color:#000000;text-transform:none;text-orientation:mixed;shape-padding:0;isolation:auto;mix-blend-mode:normal" overflow="visible" solid-color="#000000" transform="translate(-96.233226,-115.80455)" color="#000" font-family="sans-serif" white-space="normal" fill-rule="evenodd"/><path d="M81.669314 140.20054c-2.72225-.1229-4.42038-.0684-6.21485.34571a.50007859.50007859 0 1 0 .22461.97461c1.68004-.38769 3.25481-.44374 5.94532-.32227a.50005001.50005001 0 1 0 .0449-.99805zM83.415964 145.09133c-2.35179 1.37655-3.87991 2.11917-5.66075 2.58841a.50007859.50007859 0 1 1-.25512-.96707c1.66728-.43934 3.08695-1.12313 5.41131-2.48363a.50005001.50005001 0 1 1 .50454.8623zM82.317524 143.23626c-2.62359.73664-4.2969 1.2679-6.13853 1.27123-.66788.002-.67-.99986-.002-1.00015 1.7242-.003 3.27771-.50494 5.8707-1.23299.66263-.21904.94977.80422.26992.9619z" style="line-height:normal;font-variant-ligatures:normal;font-variant-position:normal;font-variant-caps:normal;font-variant-numeric:normal;font-variant-alternates:normal;font-feature-settings:normal;text-indent:0;text-align:start;text-decoration-line:none;text-decoration-style:solid;text-decoration-color:#000000;text-transform:none;text-orientation:mixed;shape-padding:0;isolation:auto;mix-blend-mode:normal" overflow="visible" solid-color="#000000" transform="translate(-96.233226,-115.80455) translate(21.166674,-4.74509)" color="#000" font-family="sans-serif" white-space="normal" fill-rule="evenodd"/></g></svg>
